<mxfile host="app.diagrams.net" modified="2023-05-23T04:29:23.936Z" agent="Mozilla/5.0 (Macintosh; Intel Mac OS X 10_15_7) AppleWebKit/537.36 (KHTML, like Gecko) Chrome/113.0.0.0 Safari/537.36" version="21.3.2" etag="CZqi7t8NQlHnK7IZNUla" type="github">
  <diagram name="페이지-1" id="rzt-fxMJ8esLACvYoB0y">
    <mxGraphModel>
      <root>
        <mxCell id="0" />
        <mxCell id="1" parent="0" />
      </root>
    </mxGraphModel>
  </diagram>
</mxfile>
